<?xml version="1.0" encoding="UTF-8" standalone="no"?>
<!-- Created with Inkscape (http://www.inkscape.org/) -->

<svg
   xmlns:dc="http://purl.org/dc/elements/1.1/"
   xmlns:cc="http://creativecommons.org/ns#"
   xmlns:rdf="http://www.w3.org/1999/02/22-rdf-syntax-ns#"
   xmlns:svg="http://www.w3.org/2000/svg"
   xmlns="http://www.w3.org/2000/svg"
   xmlns:sodipodi="http://sodipodi.sourceforge.net/DTD/sodipodi-0.dtd"
   xmlns:inkscape="http://www.inkscape.org/namespaces/inkscape"
   width="210mm"
   height="297mm"
   viewBox="0 0 744.09448819 1052.3622047"
   id="svg2"
   version="1.1"
   inkscape:version="0.91 r13725"
   sodipodi:docname="thought bubble.svg">
  <defs
     id="defs4" />
  <sodipodi:namedview
     id="base"
     pagecolor="#ffffff"
     bordercolor="#666666"
     borderopacity="1.0"
     inkscape:pageopacity="0.0"
     inkscape:pageshadow="2"
     inkscape:zoom="0.98994949"
     inkscape:cx="436.81167"
     inkscape:cy="576.79672"
     inkscape:document-units="px"
     inkscape:current-layer="layer1"
     showgrid="false"
     inkscape:window-width="1618"
     inkscape:window-height="1027"
     inkscape:window-x="54"
     inkscape:window-y="-8"
     inkscape:window-maximized="1" />
  <metadata
     id="metadata7">
    <rdf:RDF>
      <cc:Work
         rdf:about="">
        <dc:format>image/svg+xml</dc:format>
        <dc:type
           rdf:resource="http://purl.org/dc/dcmitype/StillImage" />
        <dc:title />
      </cc:Work>
    </rdf:RDF>
  </metadata>
  <g
     inkscape:label="Layer 1"
     inkscape:groupmode="layer"
     id="layer1">
    <path
       style="fill:#ffffff"
       d="m 165.88952,598.24706 c -2.98042,-2.17933 -3.27164,-3.52321 -1.72212,-7.94673 3.44394,-9.83168 15.81329,-7.39177 15.81329,3.11925 0,7.3488 -7.24748,9.83171 -14.09117,4.82748 z m 36.13125,7.62893 c -6.20457,-6.85596 -2.8687,-17.1486 5.5579,-17.1486 4.55483,0 11.91558,8.01021 11.91558,12.96693 0,7.61733 -11.80711,10.44295 -17.47348,4.18167 z m 46.70303,0.62955 c -6.1423,-1.36065 -12.15382,-8.16847 -12.15382,-13.76372 0,-5.91974 5.89,-10.99901 12.7546,-10.99901 5.67789,0 15.67157,10.46953 14.91656,15.62683 -0.67437,4.60645 -10.32232,10.28672 -15.51734,9.1359 z m 81.26033,-5.09404 c -34.03451,-3.76636 -43.80886,-10.19949 -51.82783,-34.11119 -4.87,-14.52177 -4.88404,-25.31325 -0.0843,-34.72158 4.9274,-9.65853 13.38979,-14.79476 24.39048,-14.80372 l 8.57251,-0.007 -2.90338,-19.14401 c -2.00561,-13.22436 -1.41102,-24.11003 6.29446,-35.83911 5.35152,-8.14596 19.185,-14.80503 30.14364,-16.94788 12.50106,-2.44447 51.05515,-9.61504 69.30927,16.24418 l 6.76669,9.58585 3.63668,-2.75717 c 9.77635,-7.41199 29.2763,-6.67964 39.85965,-6.31815 18.92865,0.64652 50.17007,8.52538 53.4676,24.49699 l 2.52949,8.65566 20.93326,-1.96824 c 19.82779,-1.8643 37.90366,22.91248 39.57739,46.3051 1.62474,22.70801 -6.62914,45.4109 -25.3198,54.48755 -10.84346,5.26584 -33.92702,5.84356 -56.16194,6.77507 -56.31063,2.35907 -148.39467,2.36824 -169.18385,0.0677 z"
       id="path3347-2-9"
       inkscape:connector-curvature="0"
       sodipodi:nodetypes="ssssssssssssscssccsssscssccsssscc" />
    <path
       style="fill:#000000"
       d="m 127.97237,295.97439 c -2.98042,-2.17933 -3.27164,-3.52321 -1.72212,-7.94673 3.44394,-9.83168 15.81329,-7.39177 15.81329,3.11925 0,7.3488 -7.24748,9.83171 -14.09117,4.82748 z m 11.55431,-3.94528 c 1.28419,-3.34653 -2.42185,-8.39037 -6.16497,-8.39037 -3.18359,0 -5.192,4.5541 -3.71073,8.41419 1.39921,3.64628 8.47389,3.62921 9.8757,-0.0238 z m 24.57694,11.57421 c -6.20457,-6.85596 -2.8687,-17.1486 5.5579,-17.1486 4.55483,0 11.91558,8.01021 11.91558,12.96693 0,7.61733 -11.80711,10.44295 -17.47348,4.18167 z m 13.39406,-7.31397 c 0.8132,-5.72387 -7.78249,-9.99299 -11.87678,-5.8987 -2.39256,2.39256 -2.36177,3.2541 0.2496,6.98237 3.80969,5.43906 10.79296,4.78822 11.62718,-1.08367 z m 33.30897,7.94352 c -6.1423,-1.36065 -12.15382,-8.16847 -12.15382,-13.76372 0,-5.91974 5.89,-10.99901 12.7546,-10.99901 5.67789,0 15.67157,10.46953 14.91656,15.62683 -0.67437,4.60645 -10.32232,10.28672 -15.51734,9.1359 z m 9.38519,-6.7946 c 3.05882,-2.23666 3.2432,-3.28546 1.31983,-7.50682 -3.33744,-7.32485 -10.2982,-9.90072 -16.23789,-6.00889 -5.75438,3.77043 -5.84098,4.87665 -0.87578,11.18888 4.27229,5.43134 10.32806,6.32351 15.79384,2.32683 z m 71.87514,1.70056 c -34.03451,-3.76636 -43.80886,-10.19949 -51.82783,-34.11119 -4.87,-14.52177 -4.88404,-19.31324 -0.0843,-28.72157 4.9274,-9.65853 13.38979,-14.79476 24.39048,-14.80372 l 8.57251,-0.007 -2.90338,-11.14401 c -3.3722,-12.94351 -1.41102,-24.11003 6.29446,-35.83911 5.35152,-8.14596 21.14929,-16.59074 31.0365,-16.59074 12.73781,0 25.81638,7.86917 30.55927,18.38704 l 3.19526,7.08585 10.42239,-5.25717 c 5.73233,-2.89145 11.77631,-5.25247 13.43108,-5.24673 14.29677,0.0496 30.54023,12.24218 34.53903,25.92557 l 2.52949,8.65566 9.14755,-0.53967 c 17.76301,-1.04792 30.40366,13.48391 32.07739,36.87653 1.62474,22.708 -7.34343,39.41089 -26.03409,48.48754 -10.84346,5.26584 -13.92702,5.84356 -36.16194,6.77507 -56.31063,2.35907 -68.39467,2.36824 -89.18385,0.0677 z m 117.2021,-10.12447 c 13.48464,-5.96491 26.37516,-17.7071 30.07549,-27.39632 3.97909,-10.41908 2.67534,-24.38226 -3.37418,-36.13761 -7.24847,-14.08514 -17.37536,-18.6814 -31.81427,-14.43942 -4.69263,1.37864 -5.142,1.07919 -5.142,-3.42665 0,-7.81863 -4.48733,-16.5333 -11.83533,-22.98492 -11.81354,-10.37243 -29.15959,-10.63488 -39.51514,-0.59791 -6.6246,6.42082 -8.48376,7.00359 -8.48376,2.65929 0,-5.49796 -8.17588,-17.67593 -14.48476,-21.57504 -8.26778,-5.10977 -23.77964,-4.99564 -34.06314,0.25061 -14.65834,7.47812 -22.81311,27.2322 -18.15358,43.97514 1.43102,5.14201 3.21924,10.79122 3.9738,12.55382 1.22157,2.85344 0.36473,3.08541 -7.81706,2.11641 -14.56167,-1.72462 -27.03062,6.96052 -29.54395,20.57858 -1.69645,9.19181 5.58117,30.26627 12.12168,35.10188 15.3739,11.36641 35.53396,13.95722 105.05914,13.50135 40.33855,-0.2645 44.97346,-0.63 52.99706,-4.17921 z"
       id="path3347"
       inkscape:connector-curvature="0"
       sodipodi:nodetypes="sssscssccsssssssssssssssssscssccsssscssscssssccsssssssssssssssss" />
    <path
       style="fill:#000000"
       d="m 165.88952,598.24705 c -2.98042,-2.17933 -3.27164,-3.52321 -1.72212,-7.94673 3.44394,-9.83168 15.81329,-7.39177 15.81329,3.11925 0,7.3488 -7.24748,9.83171 -14.09117,4.82748 z m 11.55431,-3.94528 c 1.28419,-3.34653 -2.42185,-8.39037 -6.16497,-8.39037 -3.18359,0 -5.192,4.5541 -3.71073,8.41419 1.39921,3.64628 8.47389,3.62921 9.8757,-0.0238 z m 24.57694,11.57421 c -6.20457,-6.85596 -2.8687,-17.1486 5.5579,-17.1486 4.55483,0 11.91558,8.01021 11.91558,12.96693 0,7.61733 -11.80711,10.44295 -17.47348,4.18167 z m 13.39406,-7.31397 c 0.8132,-5.72387 -7.78249,-9.99299 -11.87678,-5.8987 -2.39256,2.39256 -2.36177,3.2541 0.2496,6.98237 3.80969,5.43906 10.79296,4.78822 11.62718,-1.08367 z m 33.30897,7.94352 c -6.1423,-1.36065 -12.15382,-8.16847 -12.15382,-13.76372 0,-5.91974 5.89,-10.99901 12.7546,-10.99901 5.67789,0 15.67157,10.46953 14.91656,15.62683 -0.67437,4.60645 -10.32232,10.28672 -15.51734,9.1359 z m 9.38519,-6.7946 c 3.05882,-2.23666 3.2432,-3.28546 1.31983,-7.50682 -3.33744,-7.32485 -10.2982,-9.90072 -16.23789,-6.00889 -5.75438,3.77043 -5.84098,4.87665 -0.87578,11.18888 4.27229,5.43134 10.32806,6.32351 15.79384,2.32683 z m 71.87514,1.70056 C 295.94962,597.64513 286.17527,591.212 278.1563,567.3003 c -4.87,-14.52177 -4.88404,-25.31324 -0.0843,-34.72157 4.9274,-9.65853 13.38979,-14.79476 24.39048,-14.80372 l 8.57251,-0.007 -2.90338,-19.14401 c -2.00561,-13.22436 -1.41102,-24.11003 6.29446,-35.83911 5.35152,-8.14596 19.185,-14.80503 30.14364,-16.94788 12.50106,-2.44447 51.05515,-9.61504 69.30927,16.24418 l 6.76669,9.58585 3.63668,-2.75717 c 9.77635,-7.41199 29.2763,-6.67964 39.85965,-6.31815 18.92865,0.64652 50.17007,8.52538 53.4676,24.49699 l 2.52949,8.65566 20.93326,-1.96824 c 19.82779,-1.8643 37.90366,22.91248 39.57739,46.3051 1.62474,22.708 -6.62914,45.41089 -25.3198,54.48754 -10.84346,5.26584 -33.92702,5.84356 -56.16194,6.77507 -56.31063,2.35907 -148.39467,2.36824 -169.18385,0.0677 z m 217.2021,-10.12447 c 13.48464,-5.96491 24.08471,-10.3921 28.28978,-25.25346 4.51721,-15.96455 4.01225,-32.30479 -1.58847,-44.28047 -15.10561,-32.29942 -37.37536,-26.6814 -51.81427,-22.43942 -4.69263,1.37864 -5.142,1.07919 -5.142,-3.42665 0,-7.81863 -2.70162,-11.89044 -10.04962,-18.34206 -11.81354,-10.37243 -65.23101,-19.9206 -81.30085,-5.24077 -6.81144,6.22226 -8.48376,7.00359 -8.48376,2.65929 0,-5.49796 -8.16734,-17.68979 -14.48476,-21.57504 -14.69635,-9.03834 -41.69817,-11.6608 -69.42028,-1.35653 -19.27436,7.16424 -27.45597,28.83934 -22.79644,45.58228 1.43102,5.14201 3.21924,18.79122 3.9738,20.55382 1.22157,2.85344 0.36473,3.08541 -7.81706,2.11641 -14.56167,-1.72462 -27.03062,9.10338 -29.54395,22.72144 -1.69645,9.19181 6.21383,33.36807 12.12168,38.95902 21.44533,20.29498 95.53396,13.95722 165.05914,13.50135 40.33855,-0.2645 84.97346,-0.63 92.99706,-4.17921 z"
       id="path3347-2"
       inkscape:connector-curvature="0"
       sodipodi:nodetypes="sssscssccsssssssssssssssssscssccsssscssccssssccsssssssssssssssss" />
    <path
       style="fill:#b3b3b3;fill-opacity:0.75294119"
       d="m 345.83547,825.55698 c -34.03451,-3.76636 -43.80886,-10.19949 -51.82783,-34.11119 -4.87,-14.52177 -4.88404,-25.31325 -0.0843,-34.72158 4.9274,-9.65853 13.38979,-14.79476 24.39048,-14.80372 l 8.57251,-0.007 -2.90338,-19.14401 c -2.00561,-13.22436 -1.41102,-24.11003 6.29446,-35.83911 5.35152,-8.14596 19.185,-14.80503 30.14364,-16.94788 12.50106,-2.44447 51.05515,-9.61504 69.30927,16.24418 l 6.76669,9.58585 3.63668,-2.75717 c 9.77635,-7.41199 29.2763,-6.67964 39.85965,-6.31815 18.92865,0.64652 50.17007,8.52538 53.4676,24.49699 l 2.52949,8.65566 20.93326,-1.96824 c 19.82779,-1.8643 37.90366,22.91248 39.57739,46.3051 1.62474,22.70801 -6.62914,45.4109 -25.3198,54.48755 -10.84346,5.26584 -33.92702,5.84356 -56.16194,6.77507 -56.31063,2.35907 -148.39467,2.36824 -169.18385,0.0677 z"
       id="path3347-2-9-0"
       inkscape:connector-curvature="0"
       sodipodi:nodetypes="cssccsssscssccsssscc"
       inkscape:export-xdpi="290.28"
       inkscape:export-ydpi="290.28" />
    <path
       style="fill:#000000"
       d="m 345.83547,825.55697 c -34.03451,-3.76636 -43.80886,-10.19949 -51.82783,-34.11119 -4.87,-14.52177 -4.88404,-25.31324 -0.0843,-34.72157 4.9274,-9.65853 13.38979,-14.79476 24.39048,-14.80372 l 8.57251,-0.007 -2.90338,-19.14401 c -2.00561,-13.22436 -1.41102,-24.11003 6.29446,-35.83911 5.35152,-8.14596 19.185,-14.80503 30.14364,-16.94788 12.50106,-2.44447 51.05515,-9.61504 69.30927,16.24418 l 6.76669,9.58585 3.63668,-2.75717 c 9.77635,-7.41199 29.2763,-6.67964 39.85965,-6.31815 18.92865,0.64652 50.17007,8.52538 53.4676,24.49699 l 2.52949,8.65566 20.93326,-1.96824 c 19.82779,-1.8643 37.90366,22.91248 39.57739,46.3051 1.62474,22.708 -6.62914,45.41089 -25.3198,54.48754 -10.84346,5.26584 -33.92702,5.84356 -56.16194,6.77507 -56.31063,2.35907 -148.39467,2.36824 -169.18385,0.0677 z m 217.2021,-10.12447 c 13.48464,-5.96491 24.08471,-10.3921 28.28978,-25.25346 4.51721,-15.96455 4.01225,-32.30479 -1.58847,-44.28047 -15.10561,-32.29942 -37.37536,-26.6814 -51.81427,-22.43942 -4.69263,1.37864 -5.142,1.07919 -5.142,-3.42665 0,-7.81863 -2.70162,-11.89044 -10.04962,-18.34206 -11.81354,-10.37243 -65.23101,-19.9206 -81.30085,-5.24077 -6.81144,6.22226 -8.48376,7.00359 -8.48376,2.65929 0,-5.49796 -8.16734,-17.68979 -14.48476,-21.57504 -14.69635,-9.03834 -41.69817,-11.6608 -69.42028,-1.35653 -19.27436,7.16424 -27.45597,28.83934 -22.79644,45.58228 1.43102,5.14201 3.21924,18.79122 3.9738,20.55382 1.22157,2.85344 0.36473,3.08541 -7.81706,2.11641 -14.56167,-1.72462 -27.03062,9.10338 -29.54395,22.72144 -1.69645,9.19181 6.21383,33.36807 12.12168,38.95902 21.44533,20.29498 95.53396,13.95722 165.05914,13.50135 40.33855,-0.2645 84.97346,-0.63 92.99706,-4.17921 z"
       id="path3347-2-2"
       inkscape:connector-curvature="0"
       sodipodi:nodetypes="cssccsssscssccssssccsssssssssssssssss"
       inkscape:export-xdpi="290.28"
       inkscape:export-ydpi="290.28" />
  </g>
</svg>
